# xmcd CD database file
#
# Track frame offsets:
#	150
#	19321
#	42624
#	60994
#	79705
#	98700
#	119806
#	137911
#	159764
#	178812
#
# Disc length: 2644 seconds
#
# Revision: 0
# Processed by: cddbd v1.5.2PL0 Copyright (c) Steve Scherf et al.
# Submitted via: CDex 1.70beta2
#
DISCID=840a520a
DTITLE=Tim Hardin Trio - Jazz 聽 來生孝夫作品集
DYEAR=1991
DGENRE=Jazz
TTITLE0=Second Love (中森明菜)
TTITLE1=My Luxury Night
TTITLE2=遠的夢想 
TTITLE3=Slow Motion (中森明菜)
TTITLE4=夢之途中 (藥師丸博子)
TTITLE5=祈 (齊藤由貴)
TTITLE6=Goodgye Day (情已逝)
TTITLE7=Twilight (中森明菜)
TTITLE8=流浪的天使
TTITLE9=Silhouette Romance (舊情人)
EXTD=YEAR: 1991
EXTT0=
EXTT1=
EXTT2=
EXTT3=
EXTT4=
EXTT5=
EXTT6=
EXTT7=
EXTT8=
EXTT9=
PLAYORDER=
